<?xml version="1.0" encoding="utf-8"?>
<!-- Generator: Adobe Illustrator 21.1.0, SVG Export Plug-In . SVG Version: 6.00 Build 0)  -->
<svg version="1.1" id="Layer_1" xmlns="http://www.w3.org/2000/svg" xmlns:xlink="http://www.w3.org/1999/xlink" x="0px" y="0px"
	 viewBox="0 0 615.3 332" style="enable-background:new 0 0 615.3 332;" xml:space="preserve">
<style type="text/css">
	.st0{fill:#5654C6;}
</style>
<path id="Фигура_1" class="st0" d="M48.7,0.2C16.3,0.4,0.2,23.6,0.4,46.3l1.1,191.2c0.4,65.2,64.2,93.9,105.8,93.7
	c71.3-0.4,106.4-38.3,113-65.3c3.7-15.2,8.9-48,10.5-56.6c2.3-12.7,9.1-18.9,18.8-19c9.7-0.1,21.6,4.7,21.7,26.8l0.4,70
	c0.1,14.5,17,43,48.8,42.8c27.5-0.2,43.1-24.5,43-43.3l-0.4-70c-0.1-16.7,13.9-27,24.1-27.1s21.7,11.7,21.7,26.8
	c0.2,37.1,15.2,62.5,30.1,77.9c16.7,17.3,43.9,30.6,64.8,33.3c20.3,2.5,40.9,2.5,61.2,0.2c13.4-1.9,49.6-14,49.4-42.6
	c-0.1-18.9-8.4-45.7-46.1-45.5l-45.9,0.3c-14,0.1-24.4-13.3-24.4-24.1c-0.1-10.8,6.3-27,24.1-27.1l45.9-0.3
	c25.2,0,45.7-20.5,45.6-45.7c0-0.1,0-0.2,0-0.4c-0.1-18.9-22.4-43.8-48.8-45.5c-22.6-1.4-70.2,1.5-86.3,8.6
	c-12.9,5.7-17.7,13.6-24.2,13.6c-6.2,0-16.8-7.8-24.8-12.5c-5.7-3.4-21.9-8.8-45.4-8.7c-38.5,0.2-56,21.9-64.7,21.9
	c-8.6,0-25.5-21.4-73-21.1c-31.3,0.2-63.8,18.8-80.8,38.2c-16.1,18.3-24.3,51.1-26.6,70.2c-2.5,20.4-7.8,29.7-24.1,29.8
	c-16.2,0.1-16.3-24.2-16.4-45.7C98.4,169.4,95.1,68.8,95,45.7C94.7,24.1,81.1,0,48.7,0.2z"/>
</svg>
